PathFileType	4	(X/Y/Z)	 s03c0201.trc
DataRate	CameraRate	NumFrames	NumMarkers	Units	OrigDataRate	OrigDataStartFrame	OrigNumFrames
200	200	5	52	mm	200	1751	2000
Frame#	Time	racr			lacr			c7			jug			rlel			rdr			llel			ldr			s2			lic			ric			lasi			rasi			rpsi			lpsi			rgt			lgt			rth1			rth2			rth3			rth4			rlfc			rmfc			rsh1			rsh2			rsh3			rsh4			rlmal			rmmal			rcal			rtoe			rmt5			rmt1			lth1			lth2			lth4			lth3			llfc			lmfc			lsh1			lsh2			lsh3			lsh4			llmal			lmmal			lcal			ltoe			lmt1			lmt5			SBIKE			LBIKE			RBIKE			
		X1	Y1	Z1	X2	Y2	Z2	X3	Y3	Z3	X4	Y4	Z4	X5	Y5	Z5	X6	Y6	Z6	X7	Y7	Z7	X8	Y8	Z8	X9	Y9	Z9	X10	Y10	Z10	X11	Y11	Z11	X12	Y12	Z12	X13	Y13	Z13	X14	Y14	Z14	X15	Y15	Z15	X16	Y16	Z16	X17	Y17	Z17	X18	Y18	Z18	X19	Y19	Z19	X20	Y20	Z20	X21	Y21	Z21	X22	Y22	Z22	X23	Y23	Z23	X24	Y24	Z24	X25	Y25	Z25	X26	Y26	Z26	X27	Y27	Z27	X28	Y28	Z28	X29	Y29	Z29	X30	Y30	Z30	X31	Y31	Z31	X32	Y32	Z32	X33	Y33	Z33	X34	Y34	Z34	X35	Y35	Z35	X36	Y36	Z36	X37	Y37	Z37	X38	Y38	Z38	X39	Y39	Z39	X40	Y40	Z40	X41	Y41	Z41	X42	Y42	Z42	X43	Y43	Z43	X44	Y44	Z44	X45	Y45	Z45	X46	Y46	Z46	X47	Y47	Z47	X48	Y48	Z48	X49	Y49	Z49	X50	Y50	Z50	X51	Y51	Z51	X52	Y52	Z52	
1751	8.7550	450.141430	1450.857680	-32.397578	450.176944	1468.772047	-361.526997	351.342695	1544.268884	-191.876780	422.921268	1389.605246	-194.762573	516.643810	1179.333194	57.396553	730.909679	989.878407	-21.262367	531.264795	1206.151708	-443.814300	737.177742	980.259969	-424.389396	-116.380987	1194.746363	-218.712367	64.480250	1240.175384	-400.510736	51.922348	1222.969277	-29.917185	80.032548	1159.975247	-361.792426	84.099414	1142.961728	-74.243071	-95.418033	1245.289421	-170.892304	-89.423507	1249.379189	-254.182844	-8.627236	1105.456377	-29.752908	10.676037	1148.385076	-421.081979	48.867643	956.247437	-13.807963	107.169500	889.040174	-13.058192	127.641962	806.474093	-27.505752	140.171115	905.960780	-18.378203	173.274680	690.399904	-62.982448	191.485041	678.385256	-174.554233	153.309322	522.928677	-33.919635	174.686504	436.407046	-44.151725	148.408057	351.823972	-47.383567	204.087118	437.659208	-69.253293	137.839072	217.990640	-69.463148	164.101153	234.607562	-151.469986	86.860059	161.921379	-107.324128	394.374365	199.925277	-106.829831	279.466902	163.222980	-36.292744	302.166385	188.214139	-149.821587	117.019018	1072.240521	-469.410280	200.815102	1061.213357	-489.421412	217.664897	1092.490448	-477.852488	269.761732	1005.571562	-504.764218	396.687416	945.303304	-511.183920	418.953210	938.696294	-380.904339	291.237430	809.830840	-500.842557	256.446654	739.951671	-464.350049	182.662576	691.296360	-445.176582	281.842971	727.767824	-437.400250	97.601915	606.230092	-401.736452	133.104610	623.658649	-314.685162	21.576323	580.025988	-346.524646	320.603886	502.240538	-355.183266	228.339732	517.200535	-308.139129	197.111729	505.859224	-421.885441	-212.570285	946.404401	-228.753307	-4.595806	83.880119	-432.930443	-8.929133	80.923158	-32.610984	
1752	8.7600	450.119448	1450.871579	-32.334687	450.202128	1468.824140	-361.493904	351.334775	1544.294790	-191.851088	422.939813	1389.645307	-194.742734	516.642302	1179.321175	57.429501	730.928333	989.873004	-21.232871	531.285441	1206.170900	-443.778617	737.191154	980.262378	-424.327613	-116.368240	1194.753465	-218.682568	64.483480	1240.194758	-400.516102	51.926841	1222.965552	-29.892604	80.046850	1159.956340	-361.762577	84.131043	1142.953877	-74.233827	-95.412148	1245.303319	-170.856094	-89.414195	1249.386642	-254.152301	-8.596816	1105.467375	-29.742333	10.656876	1148.409708	-421.076187	48.878787	956.260489	-13.798569	107.182857	889.042296	-13.045712	127.643298	806.483476	-27.489273	140.186714	905.959362	-18.376387	173.294175	690.407763	-62.989532	191.492919	678.388034	-174.540507	153.303206	522.945021	-33.918684	174.705590	436.395111	-44.152911	148.405100	351.832029	-47.395703	204.086203	437.652649	-69.277522	137.818160	218.023974	-69.454934	163.902845	234.745673	-151.448729	86.832823	161.946555	-107.322349	394.361194	199.908078	-106.820484	279.419735	163.243973	-36.293686	302.129605	188.218712	-149.812863	116.997370	1072.257780	-469.425670	200.792194	1061.237954	-489.436899	217.630720	1092.517216	-477.894296	269.721812	1005.602850	-504.814428	396.667456	945.324803	-511.208689	418.966723	938.728490	-380.952606	291.223844	809.849453	-500.871244	256.447680	739.942348	-464.348691	182.688097	691.297853	-445.177419	281.859558	727.776645	-437.420895	97.630510	606.233912	-401.726767	133.158686	623.651343	-314.703568	21.616490	580.030426	-346.532770	320.624300	502.238227	-355.194560	228.385698	517.221979	-308.129473	197.154758	505.825745	-421.813983	-212.565532	946.410829	-228.743475	-4.589579	83.872662	-432.931715	-8.929539	80.916019	-32.600014	
1753	8.7650	450.110573	1450.873057	-32.308008	450.220817	1468.870391	-361.447652	351.344216	1544.307842	-191.807144	422.986475	1389.695762	-194.712272	516.633567	1179.325295	57.436315	730.944069	989.856252	-21.234740	531.301697	1206.162735	-443.718678	737.216640	980.272641	-424.300380	-116.363649	1194.775439	-218.670937	64.504925	1240.194851	-400.509655	51.972152	1222.948395	-29.878200	80.071632	1159.944558	-361.834504	84.141486	1142.934920	-74.235033	-95.389849	1245.329739	-170.834794	-89.407548	1249.385471	-254.129605	-8.567662	1105.472463	-29.741064	10.645646	1148.425402	-421.057746	48.876114	956.261804	-13.789978	107.165856	889.051228	-13.032949	127.661617	806.485422	-27.491006	140.173642	905.966021	-18.361056	173.306166	690.421419	-62.996113	191.490980	678.415646	-174.541720	153.313133	522.955907	-33.912376	174.707069	436.402226	-44.151327	148.401768	351.852577	-47.417053	204.081260	437.672359	-69.265157	137.817899	218.018983	-69.473813	163.911945	234.756165	-151.464706	86.830186	161.964267	-107.317777	394.349564	199.885870	-106.800885	279.402034	163.266142	-36.274831	302.141512	188.199909	-149.809212	116.967379	1072.283583	-469.446755	200.755738	1061.259093	-489.473927	217.605749	1092.524581	-477.900159	269.683361	1005.630328	-504.846921	396.627414	945.359109	-511.275819	418.959499	938.744285	-380.998822	291.228896	809.852201	-500.883504	256.459752	739.950113	-464.368449	182.697352	691.297235	-445.178716	281.876671	727.782347	-437.434154	97.665056	606.251939	-401.750570	133.177934	623.650737	-314.688043	21.634734	580.031269	-346.521533	320.638112	502.242792	-355.195012	228.416829	517.236378	-308.123505	197.182506	505.849599	-421.811036	-212.568656	946.402042	-228.742052	-4.592247	83.877710	-432.929612	-8.923641	80.918207	-32.612708	
1754	8.7700	450.110938	1450.866945	-32.264779	450.240581	1468.916060	-361.433265	351.336874	1544.319572	-191.763510	423.019802	1389.741168	-194.705444	516.646042	1179.304056	57.459390	730.965233	989.872913	-21.230804	531.313955	1206.174031	-443.682495	737.208789	980.251313	-424.264257	-116.361860	1194.796651	-218.642062	64.518747	1240.205183	-400.544072	51.979361	1223.080444	-30.175098	80.037042	1159.865139	-361.666262	84.176102	1142.931329	-74.266777	-95.366399	1245.341252	-170.821219	-89.394026	1249.417356	-254.119473	-8.542617	1105.493548	-29.740832	10.658115	1148.453606	-421.076266	48.876175	956.275827	-13.785627	107.180935	889.048410	-13.015183	127.657477	806.513233	-27.490396	140.174921	905.980809	-18.339127	173.318007	690.426791	-62.993389	191.510692	678.430504	-174.557121	153.332735	522.959364	-33.909088	174.691576	436.433471	-44.138895	148.425143	351.870653	-47.404487	204.098239	437.691294	-69.261333	137.815447	218.027759	-69.481857	163.914541	234.788789	-151.450464	86.812835	162.005387	-107.329984	394.334240	199.885128	-106.818683	279.424652	163.220924	-36.296959	302.135601	188.198332	-149.814367	116.935729	1072.298286	-469.451844	200.712328	1061.269887	-489.503112	217.560073	1092.546469	-477.943667	269.643812	1005.646376	-504.880544	396.606484	945.380560	-511.316760	418.945212	938.753294	-381.044855	291.208798	809.861484	-500.940146	256.458405	739.973217	-464.401148	182.693427	691.295586	-445.205161	281.873797	727.797516	-437.434615	97.686259	606.271109	-401.757538	133.185135	623.667875	-314.692016	21.654816	580.026901	-346.508313	320.657586	502.250103	-355.201418	228.433797	517.244546	-308.120484	197.183756	505.863165	-421.815356	-212.572648	946.415822	-228.755962	-4.590329	83.877804	-432.928798	-8.928834	80.934809	-32.611578	
1755	8.7750	450.089779	1450.891752	-32.228405	450.258636	1468.957182	-361.386609	351.328717	1544.321186	-191.704809	423.065997	1389.793947	-194.669881	516.660624	1179.300455	57.477124	730.964533	989.875304	-21.229271	531.339131	1206.167258	-443.616731	737.211336	980.247069	-424.227916	-116.362233	1194.830101	-218.635569	64.544902	1240.226816	-400.546917	52.008104	1223.084566	-30.174123	80.036231	1159.838017	-361.665106	84.188684	1142.947010	-74.239931	-95.353521	1245.362434	-170.809687	-89.386552	1249.439203	-254.115463	-8.531855	1105.513917	-29.722838	10.643190	1148.469526	-421.051115	48.877582	956.296052	-13.780748	107.185303	889.078437	-13.007903	127.664092	806.533056	-27.489940	140.187506	905.990631	-18.326714	173.324430	690.448089	-62.995372	191.517409	678.478409	-174.547544	153.336632	522.954461	-33.915546	174.700724	436.451765	-44.153023	148.414019	351.884844	-47.406767	204.099368	437.718739	-69.267237	137.819356	218.048621	-69.488815	163.935673	234.795497	-151.479118	86.819913	161.993826	-107.337904	394.362868	199.894057	-106.820087	279.410900	163.261530	-36.300109	302.134604	188.196247	-149.817245	116.894596	1072.296475	-469.456089	200.691753	1061.304107	-489.512619	217.539153	1092.553865	-477.961126	269.625957	1005.662750	-504.905165	396.565456	945.373620	-511.356956	418.938679	938.767960	-381.098756	291.191070	809.874973	-500.966437	256.446416	739.964782	-464.410874	182.699310	691.290586	-445.186383	281.864961	727.810777	-437.470930	97.686270	606.271110	-401.757549	133.185007	623.667795	-314.692013	21.652590	580.048223	-346.519178	320.648735	502.243682	-355.198108	228.437172	517.247094	-308.119891	197.189660	505.836956	-421.807307	-212.573507	946.414726	-228.748474	-4.584845	83.889245	-432.935536	-8.933538	80.924082	-32.611819	
